<?xml version="1.0" encoding="utf-8"?>
<!-- Generator: Adobe Illustrator 27.9.0, SVG Export Plug-In . SVG Version: 6.00 Build 0)  -->
<svg version="1.1" id="Layer_1" xmlns="http://www.w3.org/2000/svg" xmlns:xlink="http://www.w3.org/1999/xlink" x="0px" y="0px"
	 viewBox="0 0 834.83 222.67" style="enable-background:new 0 0 834.83 222.67;" xml:space="preserve">
<style type="text/css">
	.st0{fill:#FFFFFF;}
	.st1{fill:#E18134;}
	.st2{fill:#2A3C47;}
	.st3{opacity:0.1;}
	.st4{clip-path:url(#SVGID_00000089538454094789928210000008510512023980592284_);}
	.st5{fill:#E28234;}
	.st6{clip-path:url(#SVGID_00000123424963839174306960000008652308307825909912_);}
	.st7{fill:#0F222D;}
</style>
<g id="logo_HOZ_00000107557599145718518350000014374449797155689361_">
	<g>
		<g>
			<g>
				<g>
					<g>
						<path class="st1" d="M185.11,16.89c-1.65,2.41-10.67,14.1-34.67,14.1C123.77,30.99,105.1,0,105.1,0S86.43,30.99,59.76,30.99
							c-24.01,0-33.02-11.68-34.67-14.1c1.01,3.43,6.35,21.34,3.81,39.37H181.3C178.76,38.23,184.1,20.32,185.11,16.89z"/>
					</g>
				</g>
				<g>
					<g>
						<g>
							<path class="st2" d="M150.05,136.2c-3.5,9.13-6.27,18.54-8.4,28.04c-4.33,19.19-7.1,38.74-8.21,58.39
								c0,0,17.98-62.26,76.65-119.91c-15.86,3.51-32.01,6.09-48.15,8.12C157.34,118.86,153.37,127.53,150.05,136.2z"/>
						</g>
					</g>
					<g>
						<g>
							<path class="st2" d="M128.93,107c27.76,0.6,54.17-4.2,81.17-7.19c-21.4-15.22-28.5-35.33-28.5-35.33
								C172.28,76.1,159.81,92.48,128.93,107z"/>
						</g>
					</g>
					<g>
						<g>
							<path class="st2" d="M144.19,135.11c2.69-7.93,5.85-15.85,9.63-23.66c-16.1,1.95-32.32,2.19-48.78,2.44
								c-16.46-0.24-32.69-0.49-48.78-2.44c3.78,7.81,6.95,15.73,9.63,23.66c3.41,9.27,5.73,18.9,7.44,28.78
								c3.66,19.39,5.73,39.02,6.1,58.78c0,0,15.85-42.2,25.61-51.59c9.76,9.39,25.61,51.59,25.61,51.59
								c0.36-19.76,2.44-39.39,6.1-58.78C138.47,154.01,140.78,144.38,144.19,135.11z"/>
						</g>
					</g>
					<g>
						<g>
							<path class="st2" d="M60.05,136.2c-3.32-8.67-7.29-17.34-11.9-25.36c-16.14-2.03-32.29-4.61-48.15-8.12
								c58.67,57.65,76.65,119.91,76.65,119.91c-1.11-19.65-3.88-39.2-8.21-58.39C66.32,154.74,63.55,145.33,60.05,136.2z"/>
						</g>
					</g>
					<g>
						<g>
							<path class="st2" d="M28.5,64.48c0,0-7.1,20.11-28.5,35.33c27,3,53.41,7.8,81.17,7.19C50.28,92.48,37.82,76.1,28.5,64.48z"/>
						</g>
					</g>
					<g>
						<g>
							<path class="st2" d="M105.05,105.35c34.64,0,68.41-37.81,73.66-43.05H31.39C36.63,67.55,70.41,105.35,105.05,105.35z"/>
						</g>
					</g>
				</g>
			</g>
		</g>
		<g>
			<g>
				<path class="st1" d="M307.14,130.89c-0.5-5.47-2.43-10.69-5.79-15.65c-3.36-4.97-8.3-9.31-14.82-13.02l-28.14-16.1
					c-2.31-1.3-4.51-2.56-6.62-3.76c-2.11-1.2-3.79-2.61-5.04-4.21c-1.26-1.6-1.78-3.61-1.58-6.02c0.3-3.71,2.26-6.75,5.87-9.1
					c3.61-2.36,8.48-3.54,14.6-3.54c7.42,0,13.27,1.71,17.53,5.12c4.26,3.41,6.4,7.88,6.4,13.39h1.51l2.83-21.37h0.03l0.07-0.79
					l0.08-0.57c-0.01,0-0.01-0.01-0.02-0.01l0.17-1.8h-12.48c-1.3-0.13-2.64-0.25-4.07-0.38c-4.01-0.35-7.88-0.63-11.59-0.83
					c-3.71-0.2-6.67-0.3-8.88-0.3c-6.92,0-12.89,1.08-17.91,3.24c-5.02,2.16-8.95,5.24-11.81,9.25c-2.86,4.01-4.64,8.83-5.34,14.45
					c-0.8,7.02,0.38,13.17,3.54,18.43c3.16,5.27,8.1,9.91,14.82,13.92L265,125.7c5.12,2.81,8.88,6.02,11.29,9.63
					c2.41,3.61,3.64,7.25,3.69,10.91c0.05,3.66-0.96,7.02-3.01,10.08c-2.06,3.06-5.04,5.54-8.95,7.45
					c-3.91,1.9-8.63,2.86-14.15,2.86c-6.72,0-12.84-1.43-18.36-4.29c-5.52-2.86-9.98-6.75-13.39-11.66
					c-3.41-4.91-5.27-10.46-5.57-16.63c-0.3-6.17,1.35-12.57,4.97-19.19l-1.35-1.05c-3.81,5.32-6.24,10.84-7.3,16.55
					c-1.05,5.72-0.85,11.24,0.6,16.55c1.45,5.32,4.11,10.08,7.98,14.3c3.86,4.21,8.8,7.57,14.82,10.08
					c6.02,2.51,13.04,3.76,21.07,3.76c8.13,0,15.37-1.26,21.75-3.76c6.37-2.51,11.74-5.89,16.1-10.16c4.36-4.26,7.57-9,9.63-14.22
					C306.86,141.71,307.64,136.36,307.14,130.89z"/>
				<path class="st1" d="M485.24,81.61c-2.26-3.71-5.9-6.72-10.91-9.03c-5.02-2.31-11.89-3.46-20.62-3.46h-11.59h-1.51h-27.99h-9.48
					v1.51c0.2,0,0.47,0,0.83,0c0.35,0,0.62,0,0.83,0c2.11,0,3.94,0.73,5.49,2.18c1.55,1.46,2.33,3.34,2.33,5.64v71.63
					c0,2.21-0.75,4.06-2.26,5.57c-1.1,1.1-2.36,1.79-3.78,2.09c-1.45-0.24-2.95-0.75-4.5-1.56c-1.87-0.98-3.45-2.56-4.75-4.73
					L354.24,63.7h-1.2c-0.1,1.1-0.5,2.56-1.2,4.36c-0.7,1.81-1.48,3.74-2.33,5.79c-0.85,2.06-1.68,3.97-2.48,5.72
					c-0.8,1.76-1.41,3.14-1.81,4.14l-31.02,66.85c-1.29,2.63-2.98,4.51-5.1,5.61c-2.21,1.15-4.31,1.73-6.32,1.73h-1.2v1.51h31v-1.51
					h-1.05c-1.71,0-3.26-0.65-4.66-1.96c-1.41-1.3-1.56-3.21-0.45-5.72h-0.09l4.35-9.93h28.04l4.35,9.93h-0.07
					c1.1,2.51,0.95,4.42-0.45,5.72c-1.41,1.31-2.96,1.96-4.66,1.96h-1.2v1.51h46.65h6.32h3.01h0.15h29.19h0.15h9.33l0.15-1.51
					c-0.2,0-0.48,0-0.83,0c-0.35,0-0.63,0-0.83,0c-2.31,0-4.16-0.75-5.57-2.26c-1.41-1.51-2.16-3.36-2.26-5.57V75.89h1.81
					c4.41,0,7.85,1.53,10.31,4.59c2.46,3.06,3.84,7.15,4.14,12.26c0.1,1,0.08,2.21-0.07,3.61c-0.15,1.41-0.38,2.81-0.68,4.21
					c-0.5,2.81-1.23,5.12-2.18,6.92c-0.96,1.81-1.96,3.26-3.01,4.36c-1.05,1.11-2.06,1.93-3.01,2.48c-0.96,0.55-2.03,1.03-3.24,1.43
					v1.2c4.82,3.81,9.8,5.92,14.97,6.32c5.17,0.4,9.93-0.62,14.3-3.08c4.36-2.46,7.83-5.99,10.38-10.61
					c2.56-4.61,3.64-9.98,3.24-16.1C488.78,89.28,487.5,85.32,485.24,81.61z M333.61,133.53l11.05-25.26l11.06,25.26H333.61z"/>
				<path class="st1" d="M588.85,69.12h-28.74h-0.3h-9.48v1.51h1.51c2.21,0,4.06,0.73,5.57,2.18c1.5,1.46,2.31,3.34,2.41,5.64v32.2
					h-29.35v-32.2c0.1-2.31,0.9-4.19,2.41-5.64c1.51-1.45,3.36-2.18,5.57-2.18h1.51v-1.51h-9.48h-0.3h-28.74h-0.45h-9.48v1.51
					c1,0,1.55,0,1.65,0c2.11,0,3.94,0.73,5.49,2.18c1.55,1.46,2.33,3.34,2.33,5.64v71.63c0,2.21-0.78,4.06-2.33,5.57
					c-1.56,1.51-3.39,2.26-5.49,2.26c-0.1,0-0.65,0-1.65,0v1.51h9.48h0.45h28.74h0.3h9.48v-1.51h-1.51c-2.21,0-4.06-0.75-5.57-2.26
					c-1.51-1.51-2.31-3.36-2.41-5.57v-32.51h29.35v32.51c-0.1,2.21-0.9,4.06-2.41,5.57c-1.51,1.51-3.36,2.26-5.57,2.26h-1.51v1.51
					h9.48h0.3h28.59h0.45h9.48v-1.51h-1.66c-2.21,0-4.06-0.75-5.57-2.26c-1.51-1.51-2.26-3.36-2.26-5.57V78.45h0.15
					c0-2.31,0.75-4.19,2.26-5.64c1.51-1.45,3.36-2.18,5.57-2.18h1.66v-1.51h-9.63H588.85z"/>
				<path class="st1" d="M641.67,155.65c-1.51-1.51-2.31-3.36-2.41-5.57V78.45c0.1-2.31,0.9-4.19,2.41-5.64
					c1.51-1.45,3.31-2.18,5.42-2.18c0.1,0,0.6,0,1.51,0v-1.51h-9.33h-0.3h-28.74h-0.45h-9.33v1.51c1,0,1.55,0,1.65,0
					c2.01,0,3.79,0.73,5.34,2.18c1.55,1.46,2.33,3.34,2.33,5.64v71.63c0,2.21-0.78,4.06-2.33,5.57c-1.56,1.51-3.34,2.26-5.34,2.26
					c-0.1,0-0.65,0-1.65,0v1.51h9.33h0.45h28.74h0.3h9.48v-1.51c-0.1,0-0.65,0-1.66,0C644.98,157.91,643.18,157.15,641.67,155.65z"
					/>
				<path class="st1" d="M829.48,127.81c-1.2,5.22-3.16,9.66-5.87,13.32c-2.71,3.66-5.85,6.47-9.41,8.43
					c-3.56,1.96-7.3,2.93-11.21,2.93h-14.45v-34.01h11.59c4.41,0.1,8,1.58,10.76,4.44c2.76,2.86,4.14,6.5,4.14,10.91v0.6h1.51
					v-15.95v-0.3v-6.47v-0.3v-15.8h-1.51v0.3c0,4.42-1.38,8.08-4.14,10.99c-2.76,2.91-6.35,4.42-10.76,4.51h-11.59V76.04h15.5
					c5.72,0.1,10.08,1.76,13.09,4.97c3.01,3.21,4.51,7.73,4.51,13.54v0.75h1.51V76.04v-0.3v-5.27v-1.35v-2.26
					c-1.11,0.4-3.19,0.88-6.25,1.43c-3.06,0.55-5.94,0.83-8.65,0.83h-19.71h-0.3h-28.89h-0.3h-9.48v1.51c1,0,1.55,0,1.65,0
					c2.11,0,3.94,0.75,5.49,2.26c1.55,1.51,2.33,3.41,2.33,5.72v71.48c0,2.21-0.78,4.06-2.33,5.57c-0.82,0.8-1.72,1.37-2.7,1.75
					c-0.03-0.01-0.06-0.01-0.08-0.02c-1.31-0.35-2.66-1.2-4.06-2.56c-1.41-1.35-3.06-3.48-4.97-6.4c-1.5-2.41-2.86-4.66-4.06-6.77
					c-1.2-2.11-2.23-4.04-3.08-5.79c-0.85-1.75-1.63-3.24-2.33-4.44c-1.3-2.31-3.41-4.87-6.32-7.67c-2.91-2.81-6.27-4.72-10.08-5.72
					c5.22-0.9,9.2-2.68,11.96-5.34c2.76-2.66,4.66-5.69,5.72-9.1c1.05-3.41,1.58-6.62,1.58-9.63c0-5.32-1.05-9.6-3.16-12.87
					c-2.11-3.26-4.87-5.74-8.28-7.45c-3.41-1.7-7.12-2.88-11.14-3.54c-4.01-0.65-7.93-0.98-11.74-0.98h-12.79h-1.2h-28.14h-0.3
					h-9.33v1.51c0.2,0,0.45,0,0.75,0c0.3,0,0.65,0,1.05,0c2.01,0,3.76,0.73,5.27,2.18c1.51,1.46,2.26,3.34,2.26,5.64v71.63
					c0,2.21-0.78,4.06-2.33,5.57c-1.56,1.51-3.34,2.26-5.34,2.26c-0.4,0-0.73,0-0.98,0c-0.25,0-0.48,0-0.68,0v1.51h9.33h0.3h29.2
					h0.15h9.33v-1.51c-0.3,0-0.75,0-1.35,0c-1.71,0-3.46-0.65-5.27-1.96c-1.81-1.3-2.71-3.26-2.71-5.87V76.34c1.3,0,2.09,0,2.33,0
					c0.25,0,0.48,0,0.68,0c0.2,0,0.95,0.08,2.26,0.23c1.3,0.15,2.78,0.68,4.44,1.58c1.66,0.9,3.13,2.48,4.44,4.74
					c1.3,2.26,2.06,5.54,2.26,9.86c0.1,1.3,0.1,2.36,0,3.16c-0.1,0.8-0.15,1.35-0.15,1.66c-0.4,4.21-1.2,7.5-2.41,9.86
					c-1.2,2.36-2.61,4.04-4.21,5.04c-1.61,1-3.21,1.51-4.82,1.51c-0.2,0-0.35,0-0.45,0c-0.1,0-0.2,0-0.3,0v1.2
					c0.4,0.1,1.15,0.68,2.26,1.73c1.1,1.05,2.01,3.34,2.71,6.85c0.4,1.81,0.78,3.56,1.13,5.27c0.35,1.71,0.78,3.36,1.28,4.97
					c0.5,1.61,1.13,3.24,1.88,4.89c0.75,1.66,1.68,3.44,2.78,5.34c2.91,4.92,5.89,8.45,8.95,10.61c3.06,2.16,6.55,3.46,10.46,3.91
					s8.53,0.68,13.84,0.68h9.03h8.73h0.75h0.3h28.89h0.3h10.08h27.69h0.3l4.21-31.6H829.48z"/>
			</g>
			<g>
				<path class="st2" d="M703.67,179.71c-3.45-1.89-7.47-2.87-12.06-2.96c-2.87-0.09-5.51-0.15-7.91-0.19
					c-2.4-0.04-4.61-0.04-6.62,0c-3.64,0.04-6.71,0.33-9.2,0.87c-2.49,0.54-4.51,1.48-6.08,2.83c-1.56,1.35-2.78,3.31-3.63,5.88
					l0.71,0.26c0.6-1.07,1.28-2.09,2.03-3.05c0.75-0.96,1.79-1.81,3.12-2.54c1.33-0.73,3.1-1.29,5.31-1.67
					c1.52-0.27,3.34-0.41,5.43-0.45v38.4c0,1.12-0.41,2.07-1.22,2.86c-0.82,0.79-1.78,1.19-2.89,1.19h-0.77l-0.06,0.64h4.95h0.19
					h2.19h1.8h12.67c4.59,0,8.61-0.94,12.06-2.83c3.45-1.89,6.15-4.51,8.1-7.88c1.95-3.36,2.93-7.3,2.93-11.8s-0.98-8.41-2.93-11.74
					C709.82,184.2,707.12,181.6,703.67,179.71z M707.59,210.07c-1.52,3.09-3.66,5.49-6.4,7.2c-2.75,1.72-5.94,2.57-9.58,2.57
					c-1.93,0-3.61,0-5.05,0c-1.44,0-2.87,0-4.31,0c-0.98,0-2.09,0-3.31,0v-41.16c0.26,0,0.54,0,0.87,0c1.01,0,2.18,0,3.5,0
					c1.33,0,2.63,0.01,3.89,0.03c1.26,0.02,2.73,0.03,4.4,0.03c3.69,0,6.89,0.86,9.61,2.57c2.72,1.72,4.84,4.11,6.37,7.17
					c1.52,3.07,2.28,6.66,2.28,10.77S709.11,206.98,707.59,210.07z"/>
				<path class="st2" d="M746.34,216.27c-0.82,1.09-1.88,1.95-3.18,2.57c-1.31,0.62-3.03,0.93-5.18,0.93h-9.78v-16.34h10.93
					c0.9,0,1.57,0.27,1.99,0.8c0.43,0.54,0.64,1.17,0.64,1.9v0.84h0.71v-3.54v-0.13v-1.67v-0.13v-3.54h-0.71v0.84
					c0,0.73-0.21,1.36-0.64,1.9c-0.43,0.54-1.09,0.8-1.99,0.8H728.2v-16.34h13.31c0.99,0,1.77,0.32,2.35,0.97
					c0.58,0.64,0.87,1.41,0.87,2.31v0.96h0.71v-4.25v-0.19v-1.16v-0.64v-1.03c-0.56,0.21-1.59,0.44-3.09,0.68
					c-1.5,0.24-2.92,0.35-4.25,0.35h-9.9h-0.13h-3.02h-0.97h-4.63v0.64h0.9c1.07,0,1.95,0.32,2.64,0.97
					c0.69,0.64,1.05,1.46,1.09,2.44v30.42c-0.04,0.94-0.41,1.76-1.09,2.44c-0.69,0.69-1.57,1.03-2.64,1.03h-0.9v0.64h4.63h0.97h3.02
					h0.13h7.59h9.58h0.19l3.54-9.2h-0.64C747.86,213.95,747.15,215.18,746.34,216.27z"/>
				<path class="st2" d="M792.77,183.18h-2.51h-0.13h-4.69v0.64h1.09c0.99,0,1.82,0.32,2.51,0.97c0.68,0.64,1.05,1.44,1.09,2.38
					v26.56l-33.44-31.51h-0.64c0.39,3.17,0.58,5.85,0.58,8.04v27.53c0,0.94-0.34,1.74-1.03,2.38c-0.69,0.64-1.52,0.97-2.51,0.97H752
					v0.64h4.63h0.19h2.51h0.19h4.63v-0.64h-1.09c-0.94,0-1.77-0.32-2.48-0.97c-0.71-0.64-1.06-1.44-1.06-2.38h-0.01l-0.05-26.86
					l33.5,31.74h0.58c-0.22-1.59-0.36-3.01-0.45-4.28c-0.09-1.26-0.13-2.58-0.13-3.96v-27.27c0-0.94,0.35-1.74,1.06-2.38
					c0.71-0.64,1.53-0.97,2.48-0.97h1.09v-0.64h-4.63H792.77z"/>
				<path class="st2" d="M833.03,182.54c-0.82,0.17-1.7,0.31-2.67,0.42c-0.96,0.11-1.88,0.16-2.73,0.16h-20.9
					c-0.86,0-1.78-0.05-2.77-0.16c-0.99-0.11-1.88-0.25-2.67-0.42c-0.79-0.17-1.38-0.32-1.77-0.45v1.03v0.64v1.16v0.13v4.31h0.71
					v-1.03c0-0.9,0.29-1.66,0.87-2.28c0.58-0.62,1.36-0.95,2.35-1h11.64v32.61c-0.04,0.94-0.43,1.76-1.16,2.44
					c-0.73,0.69-1.61,1.03-2.64,1.03c-0.47,0-0.73,0-0.77,0v0.64h4.57h0.13h3.86h0.19h4.5v-0.64h-0.71c-1.03,0-1.91-0.34-2.64-1.03
					c-0.73-0.68-1.11-1.5-1.16-2.44v-32.61h11.64c0.99,0.04,1.77,0.38,2.35,1s0.87,1.38,0.87,2.28v1.03h0.71v-4.31v-0.13v-1.16
					v-0.64v-1.03C834.45,182.22,833.85,182.37,833.03,182.54z"/>
			</g>
		</g>
	</g>
</g>
</svg>
