<svg width="100" height="100" viewBox="0 0 100 100" fill="none" xmlns="http://www.w3.org/2000/svg">
<path d="M83.7799 27.8438C85.1236 17.6563 82.8111 6.34378 74.6861 4.0469C71.7929 3.27704 68.7597 3.19545 65.8293 3.80866C62.8989 4.42187 60.1529 5.71283 57.8111 7.57815C55.5432 9.2329 52.806 10.1198 49.9986 10.1094C48.0204 10.1013 46.0681 9.6586 44.2799 8.81253H44.108C43.4322 8.45854 42.7891 8.04547 42.1861 7.57815C39.845 5.71174 37.0989 4.42008 34.1683 3.80683C31.2377 3.19357 28.2042 3.2758 25.3111 4.0469C17.1861 6.34378 14.8736 17.6563 16.2174 27.8438C16.6196 30.7394 17.8933 33.4441 19.8692 35.5986C21.8452 37.7531 24.4298 39.2556 27.2799 39.9063C26.8338 40.6602 26.5864 41.515 26.5611 42.3907V42.8125C26.5652 44.1954 27.1164 45.5204 28.0942 46.4982C29.072 47.476 30.397 48.0272 31.7799 48.0313H34.608L36.6705 61.25L32.8424 62.4063C32.4467 62.5287 32.1159 62.8032 31.9225 63.1694C31.7291 63.5356 31.6891 63.9636 31.8111 64.3594C31.9114 64.6915 32.1194 64.9809 32.4023 65.1817C32.6852 65.3826 33.027 65.4836 33.3736 65.4688C33.5239 65.4908 33.6765 65.4908 33.8267 65.4688L37.2486 64.4375L38.7174 73.8125L34.3736 75.1563C34.1763 75.2153 33.9926 75.3127 33.8331 75.4429C33.6735 75.5732 33.5413 75.7336 33.444 75.9151C33.3468 76.0967 33.2863 76.2956 33.2662 76.5006C33.246 76.7055 33.2666 76.9124 33.3267 77.1094C33.4234 77.4285 33.6196 77.7083 33.8867 77.9079C34.1538 78.1075 34.4777 78.2164 34.8111 78.2188C34.9612 78.2427 35.1142 78.2427 35.2642 78.2188L39.2799 77L40.7486 86.375L36.4986 87.6719C36.1037 87.7912 35.772 88.0619 35.5758 88.4249C35.3797 88.7878 35.3351 89.2137 35.4517 89.6094C35.552 89.9415 35.7601 90.2309 36.043 90.4317C36.3259 90.6326 36.6676 90.7336 37.0142 90.7188C37.1645 90.7408 37.3171 90.7408 37.4674 90.7188L41.3111 89.5625C41.7499 91.5618 42.8639 93.3489 44.4657 94.6232C46.0675 95.8975 48.0594 96.5812 50.1061 96.5592C52.1528 96.5371 54.1295 95.8108 55.7036 94.5024C57.2776 93.194 58.353 91.3833 58.7486 89.375L59.5924 83.9531L63.5767 82.8125C63.7819 82.753 63.9734 82.6537 64.1402 82.5202C64.307 82.3867 64.4459 82.2216 64.5489 82.0345C64.6519 81.8473 64.717 81.6417 64.7406 81.4293C64.7641 81.217 64.7456 81.0021 64.6861 80.7969C64.6266 80.5917 64.5273 80.4002 64.3938 80.2334C64.2603 80.0666 64.0952 79.9278 63.9081 79.8248C63.7209 79.7217 63.5153 79.6566 63.3029 79.6331C63.0906 79.6095 62.8757 79.628 62.6705 79.6875L60.1236 80.4688L61.6861 70.0781L65.6392 68.875C66.0046 68.7324 66.3029 68.4576 66.475 68.1052C66.647 67.7528 66.6803 67.3485 66.5682 66.9727C66.456 66.5969 66.2066 66.277 65.8696 66.0766C65.5325 65.8761 65.1324 65.8098 64.7486 65.8906L62.233 66.6407L63.7955 56.25L66.9205 55.2969C67.3161 55.1745 67.647 54.9 67.8403 54.5338C68.0337 54.1675 68.0738 53.7395 67.9517 53.3438C67.8292 52.9517 67.5572 52.6237 67.1946 52.4307C66.8319 52.2377 66.4079 52.1952 66.0142 52.3125L64.2799 52.8282L65.0455 47.9688H67.4517C68.8346 47.9647 70.1596 47.4135 71.1374 46.4357C72.1152 45.4579 72.6664 44.1329 72.6705 42.75V42.3282C72.6607 41.501 72.4574 40.6876 72.0767 39.9532C75.0511 39.4174 77.7817 37.9598 79.882 35.7866C81.9822 33.6134 83.3459 30.8347 83.7799 27.8438ZM55.6549 88.8906C55.4462 90.242 54.7616 91.4743 53.7245 92.3653C52.6873 93.2563 51.3659 93.7474 49.9986 93.75C48.6209 93.7581 47.2864 93.2698 46.2391 92.3747C45.1919 91.4795 44.5019 90.2372 44.2955 88.875V88.5938L56.2486 84.9531L55.6549 88.8906ZM56.8111 81.5313L43.7486 85.4844L42.1861 76.0313L58.4361 71.1406L56.8111 81.5313ZM58.9674 67.7032L41.7799 72.9219L40.2955 63.4688L60.608 57.3125L58.9674 67.7032ZM61.1392 53.8907L39.7642 60.3438L37.8267 48.0313H62.0455L61.1392 53.8907ZM69.7174 42.8125C69.7174 43.3678 69.4968 43.9004 69.1041 44.293C68.7115 44.6857 68.1789 44.9063 67.6236 44.9063H31.8424C31.5622 44.9146 31.2832 44.8667 31.0219 44.7652C30.7606 44.6637 30.5224 44.5108 30.3213 44.3156C30.1202 44.1203 29.9604 43.8867 29.8513 43.6285C29.7421 43.3703 29.686 43.0928 29.6861 42.8125V42.3907C29.6861 41.8354 29.9067 41.3028 30.2994 40.9101C30.692 40.5175 31.2246 40.2969 31.7799 40.2969H67.5611C67.8361 40.2969 68.1083 40.3511 68.3624 40.4563C68.6164 40.5615 68.8472 40.7157 69.0416 40.9101C69.236 41.1046 69.3903 41.3354 69.4955 41.5894C69.6007 41.8434 69.6549 42.1157 69.6549 42.3907L69.7174 42.8125ZM69.4361 37.1719H30.5611C27.8269 37.1802 25.1819 36.1994 23.1142 34.4103C21.0466 32.6212 19.6958 30.1446 19.3111 27.4375C18.1861 18.875 19.8424 8.82815 26.1549 7.12503C27.4668 6.75523 28.8231 6.56599 30.1861 6.56253C33.8548 6.65552 37.3975 7.92035 40.2955 10.1719C41.0807 10.7741 41.9233 11.2975 42.8111 11.7344C44.0767 12.9063 49.5299 17.5 56.4361 17.5C57.6254 17.4943 58.8102 17.3527 59.9674 17.0782C60.3415 16.9576 60.6565 16.7005 60.8495 16.358C61.0425 16.0155 61.0993 15.6129 61.0086 15.2304C60.9179 14.8479 60.6864 14.5137 60.3602 14.2943C60.034 14.0749 59.6371 13.9866 59.2486 14.0469C56.5707 14.6226 53.7811 14.3719 51.2486 13.3282C54.3028 13.096 57.231 12.0135 59.7017 10.2032C61.6516 8.64439 63.9358 7.55817 66.3755 7.02957C68.8152 6.50097 71.3441 6.54434 73.7642 7.15628C80.0142 8.93753 81.733 18.9844 80.608 27.5469C80.2014 30.2207 78.8516 32.6608 76.8026 34.4261C74.7536 36.1914 72.1407 37.1653 69.4361 37.1719Z" fill="#E28234"/>
</svg>
