<svg width="100" height="100" viewBox="0 0 100 100" fill="none" xmlns="http://www.w3.org/2000/svg">
<path d="M95.7406 59.4344L80.5844 55.1047C78.3635 54.4701 75.991 54.6275 73.8734 55.55C74.4047 53.8453 74.8906 52.1125 75.2719 50.3281C75.3207 50.1008 75.3182 49.8653 75.2645 49.6391C75.2107 49.4128 75.1072 49.2014 74.9614 49.0202C74.8156 48.8391 74.6311 48.6927 74.4216 48.5919C74.212 48.4911 73.9826 48.4384 73.75 48.4375H68.4078L66.1703 39.4859C65.9163 38.472 65.3307 37.5721 64.5066 36.9292C63.6825 36.2862 62.6671 35.9372 61.6219 35.9375H38.3781C37.3327 35.9373 36.3171 36.2865 35.493 36.9298C34.6689 37.573 34.0834 38.4733 33.8297 39.4875L31.5922 48.4375H26.25C26.0169 48.4374 25.7868 48.4895 25.5764 48.5899C25.3661 48.6903 25.1809 48.8365 25.0343 49.0178C24.8878 49.1991 24.7837 49.4108 24.7297 49.6376C24.6756 49.8643 24.6729 50.1002 24.7219 50.3281C25.1031 52.1109 25.5891 53.8469 26.1281 55.5516C24.0082 54.6278 21.633 54.4699 19.4094 55.1047L4.25313 59.4344C3.92748 59.5286 3.64131 59.7262 3.43781 59.9974C3.23431 60.2685 3.12452 60.5985 3.125 60.9375V95.3125C3.125 95.7269 3.28962 96.1243 3.58265 96.4174C3.87567 96.7104 4.2731 96.875 4.6875 96.875H95.3125C95.7269 96.875 96.1243 96.7104 96.4174 96.4174C96.7104 96.1243 96.875 95.7269 96.875 95.3125V60.9375C96.8751 60.5977 96.7644 60.2671 96.5597 59.9958C96.355 59.7246 96.0674 59.5275 95.7406 59.4344ZM32.8125 51.5625C33.161 51.5624 33.4995 51.4458 33.7742 51.2312C34.0488 51.0166 34.2438 50.7163 34.3281 50.3781L36.8609 40.2469C36.9454 39.9084 37.1406 39.608 37.4155 39.3933C37.6905 39.1787 38.0293 39.0622 38.3781 39.0625H61.6219C61.9705 39.0622 62.3092 39.1784 62.5841 39.3927C62.859 39.6071 63.0544 39.9072 63.1391 40.2453L65.1875 48.4375H37.5V51.5625H71.7766C71.2816 53.5572 70.6728 55.5218 69.9531 57.4469L68.8484 60.3875C68.7931 60.538 68.761 60.6961 68.7531 60.8563L67.4625 84.0828C67.4337 84.5932 67.2975 85.0918 67.0626 85.5459C66.8278 86 66.4997 86.3994 66.0998 86.7178C65.6998 87.0363 65.2372 87.2667 64.742 87.394C64.2469 87.5212 63.7305 87.5424 63.2266 87.4563C62.4489 87.2959 61.7411 86.8959 61.2027 86.3123C60.6643 85.7288 60.3224 84.9911 60.225 84.2031L56.9297 62.2156C56.7867 61.2754 56.4544 60.374 55.953 59.5658C55.4516 58.7577 54.7914 58.0597 54.0125 57.5141C52.8402 56.6892 51.4412 56.2476 50.0078 56.25C49.5173 56.2528 49.0284 56.3051 48.5484 56.4062C47.1264 56.7292 45.837 57.4788 44.8527 58.5547C43.8684 59.6306 43.2361 60.9815 43.0406 62.4266L39.7422 84.4109C39.604 85.339 39.1112 86.1772 38.3675 86.7493C37.6238 87.3214 36.6871 87.5826 35.7547 87.4781C34.872 87.3414 34.0652 86.8997 33.4746 86.2296C32.8839 85.5596 32.5468 84.7038 32.5219 83.8109L31.25 60.85C31.2421 60.6898 31.21 60.5318 31.1547 60.3813L30.05 57.4422C29.3299 55.5184 28.7196 53.5554 28.2219 51.5625H32.8125ZM93.75 93.75H6.25V62.1156L20.2734 58.1094C21.7654 57.6857 23.357 57.7812 24.7877 58.3802C26.2183 58.9791 27.4033 60.046 28.1484 61.4062L29.3984 83.9844C29.4252 85.7581 30.1498 87.4498 31.4154 88.6929C32.681 89.9359 34.3855 90.6301 36.1594 90.625C37.7766 90.6268 39.3405 90.0469 40.5656 88.9913C41.7908 87.9357 42.5955 86.4747 42.8328 84.875L46.1313 62.8828C46.2303 62.0701 46.5748 61.307 47.119 60.6953C47.6631 60.0835 48.3809 59.6524 49.1766 59.4594C49.6955 59.3476 50.2318 59.3433 50.7525 59.4468C51.2731 59.5503 51.767 59.7594 52.2038 60.0611C52.6405 60.3629 53.0108 60.7509 53.2918 61.2012C53.5727 61.6516 53.7585 62.1548 53.8375 62.6797L57.1328 84.6609C57.3332 86.1022 57.9807 87.4443 58.9843 88.498C59.9878 89.5518 61.2968 90.264 62.7266 90.5344C63.6628 90.6909 64.6216 90.6483 65.5402 90.4093C66.4589 90.1702 67.3168 89.7402 68.058 89.1472C68.7992 88.5541 69.4071 87.8115 69.8418 86.9676C70.2766 86.1238 70.5286 85.1978 70.5813 84.25L71.8516 61.4062C72.5972 60.0464 73.7821 58.9798 75.2126 58.381C76.6432 57.7821 78.2346 57.6863 79.7266 58.1094L93.75 62.1156V93.75Z" fill="#E28234"/>
<path d="M58.125 4.19533C55.5578 5.29026 52.7956 5.8547 50.0047 5.8547C47.2137 5.8547 44.4516 5.29026 41.8844 4.19533C39.8719 3.3317 37.6765 2.98118 35.4951 3.17519C33.3138 3.36921 31.2147 4.1017 29.3862 5.30696C27.5577 6.51221 26.0571 8.15252 25.0188 10.0807C23.9805 12.0089 23.4372 14.1647 23.4375 16.3547C23.4423 20.4211 23.8749 24.4757 24.7281 28.4516C24.8027 28.8003 24.9943 29.1131 25.2711 29.3379C25.5479 29.5628 25.8934 29.6861 26.25 29.6875H73.75C74.1077 29.6875 74.4546 29.5648 74.7327 29.3399C75.0108 29.1149 75.2034 28.8014 75.2781 28.4516C76.1293 24.4755 76.5598 20.4209 76.5625 16.3547C76.5621 14.1659 76.0187 12.0115 74.981 10.0843C73.9432 8.15723 72.4436 6.51769 70.6164 5.31268C68.7892 4.10766 66.6916 3.37481 64.5115 3.1798C62.3314 2.9848 60.1371 3.33373 58.125 4.19533ZM73.4375 16.3547C73.434 19.7802 73.1086 23.1979 72.4656 26.5625H27.5344C26.8914 23.1979 26.566 19.7802 26.5625 16.3547C26.5633 14.6826 26.9788 13.0367 27.7719 11.5646C28.565 10.0925 29.7108 8.84012 31.1068 7.91963C32.5028 6.99914 34.1053 6.4393 35.7708 6.29026C37.4363 6.14122 39.1128 6.40764 40.65 7.06564C43.6059 8.32683 46.7863 8.97699 50 8.97699C53.2137 8.97699 56.3941 8.32683 59.35 7.06564C60.8872 6.40764 62.5637 6.14122 64.2292 6.29026C65.8947 6.4393 67.4972 6.99914 68.8932 7.91963C70.2892 8.84012 71.435 10.0925 72.2281 11.5646C73.0212 13.0367 73.4367 14.6826 73.4375 16.3547Z" fill="#E28234"/>
<path d="M29.6875 18.4453V20.3125H32.8125V18.4375C32.8585 17.1576 33.2446 15.913 33.9312 14.8318C34.6177 13.7507 35.5799 12.8719 36.7188 12.2859L35.1562 9.58124C33.5384 10.4384 32.1786 11.7118 31.2172 13.2701C30.2559 14.8283 29.7278 16.6148 29.6875 18.4453Z" fill="#E28234"/>
</svg>
