<svg width="60" height="60" viewBox="0 0 60 60" fill="none" xmlns="http://www.w3.org/2000/svg">
<g clip-path="url(#clip0_73_68)">
<path d="M0.833255 5.98425C1.62813 6.11704 2.36168 6.49479 2.93144 7.06473C3.5012 7.63467 3.87872 8.36834 4.01125 9.16325C4.05066 9.39625 4.1713 9.60777 4.35179 9.7603C4.53228 9.91283 4.76095 9.99651 4.99725 9.99651C5.23356 9.99651 5.46223 9.91283 5.64272 9.7603C5.82321 9.60777 5.94385 9.39625 5.98325 9.16325C6.11579 8.36834 6.49331 7.63467 7.06307 7.06473C7.63283 6.49479 8.36638 6.11704 9.16125 5.98425C9.39425 5.94485 9.60577 5.82421 9.7583 5.64372C9.91083 5.46323 9.99451 5.23456 9.99451 4.99825C9.99451 4.76195 9.91083 4.53328 9.7583 4.35279C9.60577 4.1723 9.39425 4.05166 9.16125 4.01225C8.36638 3.87947 7.63283 3.50172 7.06307 2.93178C6.49331 2.36184 6.11579 1.62817 5.98325 0.833255C5.94385 0.600256 5.82321 0.38874 5.64272 0.236212C5.46223 0.0836837 5.23356 0 4.99725 0C4.76095 0 4.53228 0.0836837 4.35179 0.236212C4.1713 0.38874 4.05066 0.600256 4.01125 0.833255C3.87872 1.62817 3.5012 2.36184 2.93144 2.93178C2.36168 3.50172 1.62813 3.87947 0.833255 4.01225C0.600256 4.05166 0.38874 4.1723 0.236212 4.35279C0.0836835 4.53328 0 4.76195 0 4.99825C0 5.23456 0.0836835 5.46323 0.236212 5.64372C0.38874 5.82421 0.600256 5.94485 0.833255 5.98425ZM4.99725 3.57025C5.38718 4.12518 5.87033 4.60832 6.42525 4.99825C5.87033 5.38818 5.38718 5.87133 4.99725 6.42626C4.60732 5.87133 4.12418 5.38818 3.56925 4.99825C4.12418 4.60832 4.60732 4.12518 4.99725 3.57025Z" fill="white"/>
<path d="M10.774 36.9263L11.06 37.3853L15.378 56.3853C15.6164 57.4354 16.2121 58.3702 17.0633 59.0297C17.9146 59.6892 18.9685 60.0326 20.0449 60.0011C21.1213 59.9695 22.1533 59.5651 22.9645 58.8568C23.7756 58.1486 24.3156 57.1806 24.492 56.1183L27.492 38.1243C27.5915 37.5313 27.8979 36.9927 28.3569 36.6043C28.8159 36.2158 29.3977 36.0027 29.999 36.0027C30.6003 36.0027 31.1822 36.2158 31.6412 36.6043C32.1002 36.9927 32.4066 37.5313 32.506 38.1243L35.506 56.1173C35.6832 57.1793 36.2235 58.1468 37.0348 58.8546C37.8461 59.5623 38.878 59.9665 39.9542 59.9979C41.0304 60.0293 42.0841 59.686 42.9352 59.0268C43.7864 58.3675 44.3823 57.4331 44.621 56.3833L48.937 37.3833L49.224 36.9243C52.3459 31.9317 54.0003 26.1616 53.998 20.2733C53.9982 17.9108 53.412 15.5852 52.292 13.505C51.172 11.4248 49.5533 9.65516 47.5809 8.35469C45.6085 7.05422 43.3442 6.2636 40.9911 6.05375C38.6379 5.84389 36.2694 6.22136 34.098 7.1523C32.8017 7.70456 31.4071 7.98924 29.998 7.98924C28.589 7.98924 27.1944 7.70456 25.898 7.1523C23.7267 6.22136 21.3582 5.84389 19.005 6.05375C16.6519 6.2636 14.3876 7.05422 12.4152 8.35469C10.4428 9.65516 8.82407 11.4248 7.70408 13.505C6.58409 15.5852 5.99789 17.9108 5.99805 20.2733C5.99606 26.1625 7.65113 31.9333 10.774 36.9263ZM20.273 7.99829C21.9357 7.99652 23.5813 8.33407 25.109 8.99029C26.6546 9.64974 28.3177 9.9897 29.998 9.9897C31.6784 9.9897 33.3415 9.64974 34.887 8.99029C36.7542 8.19024 38.7907 7.86602 40.814 8.0467C42.8372 8.22738 44.7841 8.90732 46.4799 10.0256C48.1757 11.1438 49.5676 12.6654 50.5307 14.4539C51.4937 16.2424 51.9979 18.242 51.998 20.2733C51.9994 25.7878 50.4497 31.1916 47.526 35.8673L47.15 36.4673C47.0911 36.5624 47.0479 36.6664 47.022 36.7753L42.669 55.9373C42.5331 56.5353 42.1937 57.0675 41.7089 57.4431C41.2241 57.8186 40.624 58.0142 40.011 57.9963C39.398 57.9785 38.8102 57.7484 38.348 57.3453C37.8859 56.9422 37.578 56.3912 37.477 55.7863L34.477 37.7933C34.3001 36.7333 33.7529 35.7704 32.9327 35.0758C32.1126 34.3813 31.0728 34.0001 29.998 34.0001C28.9233 34.0001 27.8835 34.3813 27.0634 35.0758C26.2432 35.7704 25.696 36.7333 25.519 37.7933L22.519 55.7873C22.4187 56.3925 22.1113 56.944 21.6492 57.3476C21.1872 57.7511 20.5993 57.9816 19.9861 57.9995C19.3729 58.0175 18.7725 57.8218 18.2877 57.446C17.8028 57.0702 17.4636 56.5376 17.328 55.9393L12.974 36.7763C12.9482 36.6674 12.905 36.5634 12.846 36.4683L12.47 35.8683C9.54622 31.1923 7.99655 25.7882 7.99805 20.2733C8.00175 17.0189 9.2962 13.8989 11.5974 11.5977C13.8986 9.29645 17.0187 8.002 20.273 7.99829Z" fill="white"/>
<path d="M12.998 19.9983C12.998 14.9273 17.028 14.0143 17.198 13.9773L16.998 12.9983L16.798 12.0183C14.798 12.4193 10.998 14.6033 10.998 19.9983H12.998Z" fill="white"/>
<path d="M20.998 11.9983H18.998V13.9983H20.998V11.9983Z" fill="white"/>
<path d="M59.1613 46.0123C58.3664 45.8795 57.6328 45.5017 57.0631 44.9318C56.4933 44.3618 56.1158 43.6282 55.9833 42.8333C55.9439 42.6003 55.8232 42.3887 55.6427 42.2362C55.4622 42.0837 55.2336 42 54.9973 42C54.7609 42 54.5323 42.0837 54.3518 42.2362C54.1713 42.3887 54.0507 42.6003 54.0113 42.8333C53.8787 43.6282 53.5012 44.3618 52.9314 44.9318C52.3617 45.5017 51.6281 45.8795 50.8333 46.0123C50.6003 46.0517 50.3887 46.1723 50.2362 46.3528C50.0837 46.5333 50 46.7619 50 46.9983C50 47.2346 50.0837 47.4632 50.2362 47.6437C50.3887 47.8242 50.6003 47.9448 50.8333 47.9843C51.6281 48.117 52.3617 48.4948 52.9314 49.0647C53.5012 49.6347 53.8787 50.3683 54.0113 51.1633C54.0507 51.3963 54.1713 51.6078 54.3518 51.7603C54.5323 51.9128 54.7609 51.9965 54.9973 51.9965C55.2336 51.9965 55.4622 51.9128 55.6427 51.7603C55.8232 51.6078 55.9439 51.3963 55.9833 51.1633C56.1158 50.3683 56.4933 49.6347 57.0631 49.0647C57.6328 48.4948 58.3664 48.117 59.1613 47.9843C59.3943 47.9448 59.6058 47.8242 59.7583 47.6437C59.9108 47.4632 59.9945 47.2346 59.9945 46.9983C59.9945 46.7619 59.9108 46.5333 59.7583 46.3528C59.6058 46.1723 59.3943 46.0517 59.1613 46.0123ZM54.9973 48.4263C54.6073 47.8713 54.1242 47.3882 53.5693 46.9983C54.1242 46.6083 54.6073 46.1252 54.9973 45.5703C55.3872 46.1252 55.8703 46.6083 56.4253 46.9983C55.8703 47.3882 55.3872 47.8713 54.9973 48.4263Z" fill="white"/>
</g>
<defs>
<clipPath id="clip0_73_68">
<rect width="60" height="60" fill="white"/>
</clipPath>
</defs>
</svg>
