<svg width="60" height="60" viewBox="0 0 60 60" fill="none" xmlns="http://www.w3.org/2000/svg">
<g clip-path="url(#clip0_73_88)">
<path d="M57.0501 36.475L40.3071 32.3C39.4857 32.0951 38.6339 32.0409 37.7931 32.14L22.3271 33.96L6.44509 19.941C5.7576 19.3342 4.87206 18.9995 3.95509 19H3.76409C3.00184 19 2.25755 19.2314 1.62969 19.6636C1.00184 20.0958 0.519998 20.7085 0.247931 21.4205C-0.0241371 22.1326 -0.0736125 22.9104 0.106051 23.6512C0.285714 24.392 0.686048 25.0607 1.25409 25.569L17.3541 39.969C17.8482 40.4092 18.4024 40.7769 19.0001 41.061V44.91C18.9987 45.6207 19.1829 46.3194 19.5344 46.9371C19.8859 47.5548 20.3926 48.07 21.0044 48.4317C21.6161 48.7935 22.3117 48.9892 23.0224 48.9996C23.733 49.01 24.434 48.8347 25.0561 48.491L32.0001 49.826V53H9.00009C7.67449 53.0016 6.40364 53.5289 5.46631 54.4662C4.52897 55.4036 4.00167 56.6744 4.00009 58C4.00009 58.2652 4.10544 58.5196 4.29298 58.7071C4.48052 58.8946 4.73487 59 5.00009 59H55.0001C55.2653 59 55.5197 58.8946 55.7072 58.7071C55.8947 58.5196 56.0001 58.2652 56.0001 58V53.79C56.0065 52.2013 55.4697 50.6581 54.4786 49.4163C53.4875 48.1746 52.1017 47.309 50.5511 46.963L33.2221 43.025H33.2101H33.1961L29.0251 42.19L29.6251 40.998L38.9251 40.019L55.1371 44.319H55.1511C55.4574 44.3963 55.7722 44.4353 56.0881 44.435C56.6018 44.4366 57.1108 44.3366 57.5859 44.1409C58.0609 43.9452 58.4925 43.6575 58.856 43.2945C59.2196 42.9315 59.5078 42.5002 59.7041 42.0254C59.9004 41.5506 60.001 41.0418 60.0001 40.528V40.262C60.0011 39.3922 59.7113 38.547 59.1768 37.8609C58.6422 37.1747 57.8937 36.6869 57.0501 36.475ZM9.00009 55H32.0001V57H6.17109C6.37867 56.4155 6.76199 55.9095 7.26847 55.5514C7.77496 55.1934 8.37981 55.0008 9.00009 55ZM53.9331 53H36.0001V55H54.0001V57H34.0001V45.253L50.1081 48.914C51.0825 49.1318 51.9686 49.6381 52.6509 50.367C53.3332 51.0958 53.78 52.0134 53.9331 53ZM32.0001 44.82V47.79L26.7271 46.775C26.7341 46.763 26.7421 46.752 26.7491 46.739L28.0981 44.039L32.0001 44.82ZM24.9591 45.845C24.7484 46.2659 24.4018 46.6034 23.9754 46.8028C23.549 47.0022 23.0678 47.0519 22.6097 46.9437C22.1516 46.8355 21.7434 46.5758 21.4513 46.2067C21.1592 45.8376 21.0002 45.3807 21.0001 44.91V41.67C21.5792 41.7589 22.1671 41.7743 22.7501 41.716L27.2611 41.241L24.9591 45.845ZM58.0001 40.528C58 40.817 57.9342 41.1023 57.8076 41.3621C57.681 41.622 57.4969 41.8496 57.2694 42.0279C57.0418 42.2061 56.7767 42.3303 56.4941 42.3909C56.2115 42.4516 55.9187 42.4472 55.6381 42.378L39.2561 38.033C39.1388 38.0019 39.0168 37.9924 38.8961 38.005L22.5421 39.727C21.8476 39.8008 21.1454 39.728 20.4809 39.5134C19.8163 39.2987 19.2042 38.947 18.6841 38.481L2.58409 24.081C2.31674 23.8428 2.12822 23.5288 2.04359 23.1809C1.95896 22.8329 1.98223 22.4675 2.1103 22.1331C2.23838 21.7987 2.46519 21.5112 2.76059 21.3088C3.056 21.1064 3.406 20.9987 3.76409 21H3.95509C4.38478 21.0001 4.79969 21.1569 5.12209 21.441L21.3381 35.75C21.4433 35.8434 21.5671 35.9134 21.7014 35.9553C21.8358 35.9972 21.9774 36.0101 22.1171 35.993L38.0271 34.122C38.629 34.05 39.2391 34.0886 39.8271 34.236L56.5671 38.414C56.9774 38.5189 57.341 38.7576 57.6005 39.0922C57.86 39.4269 58.0006 39.8385 58.0001 40.262V40.528Z" fill="white"/>
<path d="M24 43H22V45H24V43Z" fill="white"/>
<path d="M56.675 1H35C34.2044 1 33.4413 1.31607 32.8787 1.87868C32.3161 2.44129 32 3.20435 32 4V24H34V4C34 3.73478 34.1054 3.48043 34.2929 3.29289C34.4804 3.10536 34.7348 3 35 3H56.675C56.9899 2.99925 57.2948 3.11077 57.5349 3.31454C57.775 3.51831 57.9346 3.80099 57.9851 4.11184C58.0355 4.42268 57.9735 4.74133 57.8102 5.0106C57.6469 5.27986 57.393 5.48209 57.094 5.581L48.051 8.6C47.4545 8.79889 46.9356 9.18016 46.5676 9.68994C46.1996 10.1997 46.001 10.8123 46 11.441V13.1C45.0701 13.2925 44.2145 13.7467 43.534 14.409C43.1895 13.8569 42.6744 13.4321 42.0668 13.1989C41.4592 12.9657 40.7922 12.9368 40.1667 13.1166C39.5413 13.2964 38.9914 13.6752 38.6005 14.1954C38.2095 14.7157 37.9987 15.3492 38 16V19C38 19.7956 38.3161 20.5587 38.8787 21.1213C39.4413 21.6839 40.2044 22 41 22V20C40.7348 20 40.4804 19.8946 40.2929 19.7071C40.1054 19.5196 40 19.2652 40 19V16C40 15.7348 40.1054 15.4804 40.2929 15.2929C40.4804 15.1054 40.7348 15 41 15C41.2652 15 41.5196 15.1054 41.7071 15.2929C41.8946 15.4804 42 15.7348 42 16V18C42 19.3261 42.5268 20.5979 43.4645 21.5355C44.4021 22.4732 45.6739 23 47 23C48.3261 23 49.5979 22.4732 50.5355 21.5355C51.4732 20.5979 52 19.3261 52 18V16C52 15.7348 52.1054 15.4804 52.2929 15.2929C52.4804 15.1054 52.7348 15 53 15C53.2652 15 53.5196 15.1054 53.7071 15.2929C53.8946 15.4804 54 15.7348 54 16V19C54 19.2652 53.8946 19.5196 53.7071 19.7071C53.5196 19.8946 53.2652 20 53 20V22C53.7956 22 54.5587 21.6839 55.1213 21.1213C55.6839 20.5587 56 19.7956 56 19V16C56.0011 15.3493 55.7901 14.7159 55.3991 14.1958C55.008 13.6757 54.4582 13.2972 53.8328 13.1175C53.2074 12.9378 52.5404 12.9667 51.9329 13.2C51.3255 13.4332 50.8105 13.858 50.466 14.41C49.7856 13.7473 48.93 13.2928 48 13.1V11.44C48.0002 11.2302 48.0663 11.0258 48.189 10.8556C48.3118 10.6855 48.485 10.5583 48.684 10.492L57.727 7.478C58.475 7.22757 59.1097 6.71935 59.5175 6.04412C59.9254 5.3689 60.0799 4.57066 59.9534 3.79201C59.827 3.01337 59.4278 2.30505 58.8273 1.79358C58.2267 1.28212 57.4638 1.00084 56.675 1ZM50 18C50 18.5933 49.8241 19.1734 49.4944 19.6667C49.1648 20.1601 48.6962 20.5446 48.148 20.7716C47.5999 20.9987 46.9967 21.0581 46.4147 20.9424C45.8328 20.8266 45.2982 20.5409 44.8787 20.1213C44.4591 19.7018 44.1734 19.1672 44.0576 18.5853C43.9419 18.0033 44.0013 17.4001 44.2284 16.8519C44.4554 16.3038 44.8399 15.8352 45.3333 15.5056C45.8266 15.1759 46.4067 15 47 15C47.7956 15 48.5587 15.3161 49.1213 15.8787C49.6839 16.4413 50 17.2044 50 18Z" fill="white"/>
<path d="M48 17H46V19H48V17Z" fill="white"/>
<path d="M21 28H35V31H37V27C37 26.7348 36.8946 26.4804 36.7071 26.2929C36.5196 26.1054 36.2652 26 36 26H30V23C30 22.2044 29.6839 21.4413 29.1213 20.8787C28.5587 20.3161 27.7956 20 27 20C26.2044 20 25.4413 20.3161 24.8787 20.8787C24.3161 21.4413 24 22.2044 24 23V24H26V23C26 22.7348 26.1054 22.4804 26.2929 22.2929C26.4804 22.1054 26.7348 22 27 22C27.2652 22 27.5196 22.1054 27.7071 22.2929C27.8946 22.4804 28 22.7348 28 23V26H20C19.7348 26 19.4804 26.1054 19.2929 26.2929C19.1054 26.4804 19 26.7348 19 27V29H21V28Z" fill="white"/>
</g>
<defs>
<clipPath id="clip0_73_88">
<rect width="60" height="60" fill="white"/>
</clipPath>
</defs>
</svg>
