<svg width="60" height="60" viewBox="0 0 60 60" fill="none" xmlns="http://www.w3.org/2000/svg">
<path d="M37.0137 56.0955V56.0955C37.0137 55.0437 36.161 54.191 35.1092 54.191H27.3999C26.3481 54.191 25.4954 55.0437 25.4954 56.0955V56.0955C25.4954 57.1473 26.3481 58 27.3999 58H35.1092C36.161 58 37.0137 57.1473 37.0137 56.0955Z" stroke="white" stroke-width="2" stroke-linecap="round" stroke-linejoin="round"/>
<path d="M25.4944 56.0955C11.3348 56.0955 10.8887 43.673 10.8887 43.673V39.2948" stroke="white" stroke-width="2" stroke-linecap="round" stroke-linejoin="round"/>
<path d="M26.2695 38.9083C26.7794 39.9246 28.4 40.6674 30.3203 40.6674C32.2462 40.6674 33.8706 39.9203 34.3755 38.8995" stroke="white" stroke-width="2" stroke-linecap="round" stroke-linejoin="round"/>
<path d="M8.31445 24.9243C8.75227 11.3869 18.4544 2 30.3193 2C42.1842 2 51.8863 11.3781 52.3329 24.9243" stroke="white" stroke-width="2" stroke-linecap="round" stroke-linejoin="round"/>
<path d="M48.4537 24.898C48.4595 24.7316 48.4566 24.565 48.4449 24.3989C48.1297 12.9543 40.1351 7.18384 30.3279 7.18384C21.8867 7.18384 14.794 11.4482 12.7713 19.9156C12.3864 21.5485 12.1925 23.2205 12.1934 24.898" stroke="white" stroke-width="2" stroke-linecap="round" stroke-linejoin="round"/>
<path d="M46.422 38.8995C43.1121 44.8977 36.6586 50.3967 30.3277 50.3967C25.5817 50.3967 20.7569 47.3144 17.2456 43.234C16.0886 41.8997 15.076 40.4468 14.2246 38.8995" stroke="white" stroke-width="2" stroke-linecap="round" stroke-linejoin="round"/>
<path d="M48.4488 24.4017L43.5479 20.9484C41.5505 19.536 39.1412 18.8259 36.6971 18.9292C34.253 19.0325 31.9122 19.9434 30.0411 21.5192C28.0474 23.1983 25.5247 24.1192 22.9182 24.1192H22.218C19.9553 24.1191 17.747 23.4249 15.8912 22.1302L12.7715 19.9132" stroke="white" stroke-width="2" stroke-linecap="round" stroke-linejoin="round"/>
<path d="M40.255 31.5027C40.2557 31.0863 40.1743 30.6738 40.0155 30.2889C39.8566 29.9039 39.6234 29.5541 39.3292 29.2593C39.035 28.9646 38.6856 28.7308 38.3009 28.5712C37.9162 28.4117 37.5039 28.3296 37.0875 28.3296C36.671 28.3296 36.2587 28.4117 35.874 28.5712C35.4893 28.7308 35.1399 28.9646 34.8457 29.2593C34.5515 29.5541 34.3183 29.9039 34.1594 30.2889C34.0006 30.6738 33.9192 31.0863 33.9199 31.5027" stroke="white" stroke-width="2" stroke-linecap="round" stroke-linejoin="round"/>
<path d="M26.2979 31.5027C26.2979 31.0868 26.216 30.6749 26.0568 30.2906C25.8977 29.9063 25.6643 29.5571 25.3702 29.263C25.0761 28.9688 24.7269 28.7355 24.3426 28.5763C23.9583 28.4171 23.5464 28.3352 23.1304 28.3352C22.7145 28.3352 22.3026 28.4171 21.9183 28.5763C21.534 28.7355 21.1848 28.9688 20.8906 29.263C20.5965 29.5571 20.3632 29.9063 20.204 30.2906C20.0448 30.6749 19.9629 31.0868 19.9629 31.5027" stroke="white" stroke-width="2" stroke-linecap="round" stroke-linejoin="round"/>
<path d="M47.6768 39.2948H51.8343C52.8341 39.2948 53.6445 38.4843 53.6445 37.4846V26.7086C53.6445 25.7089 52.8341 24.8984 51.8343 24.8984H47.6768C46.677 24.8984 45.8666 25.7089 45.8666 26.7086V37.4846C45.8666 38.4843 46.677 39.2948 47.6768 39.2948Z" stroke="white" stroke-width="2" stroke-linecap="round" stroke-linejoin="round"/>
<path d="M8.8096 39.2948H12.9671C13.9669 39.2948 14.7773 38.4843 14.7773 37.4846L14.7773 26.7086C14.7773 25.7089 13.9669 24.8984 12.9671 24.8984H8.8096C7.80985 24.8984 6.99938 25.7089 6.99938 26.7086L6.99938 37.4846C6.99938 38.4843 7.80985 39.2948 8.8096 39.2948Z" stroke="white" stroke-width="2" stroke-linecap="round" stroke-linejoin="round"/>
</svg>
