<svg width="100" height="100" viewBox="0 0 100 100" fill="none" xmlns="http://www.w3.org/2000/svg">
<path d="M4.68617 31.25C4.45741 31.2502 4.23147 31.3006 4.02433 31.3977C3.81719 31.4948 3.6339 31.6362 3.4874 31.8119C3.34091 31.9876 3.23478 32.1933 3.17652 32.4146C3.11826 32.6358 3.10929 32.8671 3.15024 33.0922C4.96521 43.0997 10.237 52.1519 18.0454 58.669C25.8538 65.1861 35.703 68.754 45.8737 68.75H54.1237C64.2944 68.754 74.1435 65.1861 81.9519 58.669C89.7604 52.1519 95.0321 43.0997 96.8471 33.0922C96.8881 32.8671 96.8791 32.6358 96.8208 32.4146C96.7626 32.1933 96.6564 31.9876 96.5099 31.8119C96.3634 31.6362 96.1801 31.4948 95.973 31.3977C95.7659 31.3006 95.5399 31.2502 95.3112 31.25H4.68617ZM54.1237 65.625H45.8737C39.7232 65.6269 33.6541 64.2196 28.1322 61.511C22.6102 58.8025 17.7823 54.8647 14.019 50H23.4362V54.6875H26.5612V50H35.9362V59.375H39.0612V50H48.4362V59.375H51.5612V50H60.9362V59.375H64.0612V50H73.4362V54.6875H76.5612V50H85.9784C82.215 54.8647 77.3871 58.8025 71.8652 61.511C66.3432 64.2196 60.2741 65.6269 54.1237 65.625ZM88.1862 46.875H76.5612V39.0625H73.4362V46.875H64.0612V39.0625H60.9362V46.875H51.5612V39.0625H48.4362V46.875H39.0612V39.0625H35.9362V46.875H26.5612V39.0625H23.4362V46.875H11.8127C9.38181 43.033 7.62035 38.8063 6.60336 34.375H93.394C92.377 38.8063 90.6171 43.033 88.1862 46.875Z" fill="#E28234"/>
<path d="M4.43087 12.4781C5.67286 12.6856 6.81903 13.2759 7.70928 14.1664C8.59954 15.0569 9.1894 16.2033 9.39649 17.4453C9.45806 17.8094 9.64656 18.1399 9.92857 18.3782C10.2106 18.6165 10.5679 18.7473 10.9371 18.7473C11.3063 18.7473 11.6636 18.6165 11.9457 18.3782C12.2277 18.1399 12.4162 17.8094 12.4777 17.4453C12.6848 16.2033 13.2747 15.0569 14.1649 14.1664C15.0552 13.2759 16.2014 12.6856 17.4434 12.4781C17.8074 12.4166 18.1379 12.2281 18.3762 11.9461C18.6146 11.664 18.7453 11.3067 18.7453 10.9375C18.7453 10.5683 18.6146 10.211 18.3762 9.92898C18.1379 9.64696 17.8074 9.45846 17.4434 9.39689C16.2014 9.18941 15.0552 8.59919 14.1649 7.70866C13.2747 6.81812 12.6848 5.67177 12.4777 4.42971C12.4162 4.06565 12.2277 3.73515 11.9457 3.49683C11.6636 3.2585 11.3063 3.12775 10.9371 3.12775C10.5679 3.12775 10.2106 3.2585 9.92857 3.49683C9.64656 3.73515 9.45806 4.06565 9.39649 4.42971C9.1894 5.67177 8.59954 6.81812 7.70928 7.70866C6.81903 8.59919 5.67286 9.18941 4.43087 9.39689C4.06681 9.45846 3.73631 9.64696 3.49799 9.92898C3.25966 10.211 3.12891 10.5683 3.12891 10.9375C3.12891 11.3067 3.25966 11.664 3.49799 11.9461C3.73631 12.2281 4.06681 12.4166 4.43087 12.4781ZM10.9371 8.70627C11.5464 9.57333 12.3013 10.3283 13.1684 10.9375C12.3013 11.5468 11.5464 12.3017 10.9371 13.1688C10.3279 12.3017 9.57293 11.5468 8.70587 10.9375C9.57293 10.3283 10.3279 9.57333 10.9371 8.70627Z" fill="#E28234"/>
<path d="M54.1703 81.25C62.3463 81.2393 70.3592 78.962 77.3188 74.6711C84.2783 70.3802 89.912 64.2439 93.5938 56.9438L90.7812 55.5563C87.3607 62.3341 82.1285 68.0313 75.6657 72.0153C69.2029 75.9993 61.7624 78.1141 54.1703 78.125H45.8297C38.2376 78.1141 30.7971 75.9993 24.3343 72.0153C17.8715 68.0313 12.6393 62.3341 9.21875 55.5563L6.40625 56.9438C10.088 64.2439 15.7217 70.3802 22.6812 74.6711C29.6408 78.962 37.6537 81.2393 45.8297 81.25H54.1703Z" fill="#E28234"/>
<path d="M5.01719 28.0891L40.2078 20.4328L48.9953 27.7563C49.2763 27.9909 49.6308 28.1195 49.9969 28.1195C50.363 28.1195 50.7174 27.9909 50.9984 27.7563L59.7859 20.4328L94.9766 28.0891L95.6422 25.036L59.7047 17.2235C59.4721 17.1726 59.231 17.1756 58.9997 17.2322C58.7684 17.2888 58.5532 17.3975 58.3703 17.55L49.9969 24.5313L41.6234 17.5531C41.4406 17.4006 41.2253 17.292 40.9941 17.2354C40.7628 17.1788 40.5217 17.1758 40.2891 17.2266L4.35156 25.0391L5.01719 28.0891Z" fill="#E28234"/>
</svg>
