<svg width="800" height="766" viewBox="0 0 800 766" xmlns="http://www.w3.org/2000/svg">
<path d="M438.621 24.0175L528.851 206.846C535.125 219.562 547.257 228.373 561.291 230.409L763.06 259.729C798.405 264.869 812.506 308.29 786.94 333.204L640.941 475.515C630.795 485.411 626.156 499.679 628.559 513.646L663.019 714.597C669.059 749.791 632.113 776.625 600.507 760.021L420.048 665.152C407.499 658.561 392.497 658.561 379.948 665.152L199.489 760.021C167.883 776.642 130.937 749.791 136.978 714.597L171.437 513.646C173.84 499.679 169.201 485.411 159.055 475.515L13.0562 333.204C-12.5091 308.273 1.59183 264.852 36.936 259.729L238.705 230.409C252.739 228.373 264.871 219.562 271.145 206.846L361.375 24.0175C377.161 -8.00584 422.818 -8.00584 438.621 24.0175Z" fill="#F5862C"/>
</svg>
