<svg width="100" height="100" viewBox="0 0 100 100" fill="none" xmlns="http://www.w3.org/2000/svg">
<path d="M83.2 22.4L88.7 19.7C89.2 19.4 89.5 18.9 89.5 18.4C89.5 17.9 89.2 17.3 88.7 17.1L81.4 13.5L77.8 6.20002C77.5 5.70002 77 5.40002 76.5 5.40002C76 5.40002 75.4 5.70002 75.2 6.20002L71.6 13.5L64.7 16.9C46.7 14.2 22.7 16.5 11.2 26.2C7 29.6 5 33.7 5 38.3V48.4C5 53.4 8.7 57.6 13.6 58.4V64.7C13.6 65.5 14.3 66.2 15.1 66.2H40.6V77.9C40.6 78.7 41.3 79.4 42.1 79.4H60.7C61.5 79.4 62.2 78.7 62.2 77.9V66.1H84.9C85.7 66.1 86.4 65.4 86.4 64.6V58.3C91.2 57.6 95 53.4 95 48.3V38.3C95 31.9 90.9 26.4 83.2 22.4ZM73.3 15.9C73.6 15.8 73.8 15.5 74 15.2L76.4 10.2L78.8 15.2C78.9 15.5 79.2 15.7 79.5 15.9L84.5 18.3L79.5 20.7C79.2 20.8 79 21.1 78.8 21.4L76.4 26.4L74 21.4C73.9 21.1 73.6 20.9 73.3 20.7L68.3 18.3L73.3 15.9ZM16.6 49.9C16.6 46.2 19.6 43.2 23.3 43.2C27 43.2 30 46.2 30 49.9V63.1H16.6V49.9ZM32.9 63.1V49.9V47.8C32.9 43.5 36.4 40 40.7 40C45 40 48.5 43.5 48.5 47.8V50.6C44 51.9 40.6 56 40.6 61V63.1H32.9ZM59.2 76.3H43.6V61C43.6 56.7 47.1 53.2 51.4 53.2C55.7 53.2 59.2 56.7 59.2 61V76.3ZM51.5 50.2V47.8C51.5 43.5 55 40 59.3 40C63.6 40 67.1 43.5 67.1 47.8V49.9V63.1H62.2V61C62.2 55.1 57.4 50.3 51.5 50.2ZM83.4 63.1H70.1V49.9C70.1 46.2 73.1 43.2 76.8 43.2C80.5 43.2 83.5 46.2 83.5 49.9V63.1H83.4ZM92 48.4C92 51.8 89.6 54.6 86.4 55.3V50C86.4 44.7 82.1 40.3 76.7 40.3C73.7 40.3 71 41.7 69.2 43.8C67.6 39.8 63.7 37.1 59.2 37.1C55.2 37.1 51.8 39.3 49.9 42.4C48 39.2 44.6 37.1 40.6 37.1C36.1 37.1 32.2 39.9 30.6 43.8C28.8 41.6 26.1 40.3 23.1 40.3C17.8 40.3 13.4 44.6 13.4 50V55.3C10.4 54.6 8 51.7 8 48.4V38.3C8 34.6 9.7 31.3 13 28.5C22.4 20.5 44.4 16.8 64.4 19.9L71.5 23.4L75.1 30.7C75.4 31.2 75.9 31.5 76.4 31.5C76.9 31.5 77.5 31.2 77.7 30.7L80.7 24.6C86.2 27.1 92 31.5 92 38.3V48.4Z" fill="#E28234"/>
<path d="M32.2 81.8L25.9 78.7L22.8 72.4C22.5 71.9 22 71.6 21.5 71.6C21 71.6 20.4 71.9 20.2 72.4L17.1 78.7L10.8 81.8C10.3 82.1 10 82.6 10 83.1C10 83.6 10.3 84.2 10.8 84.4L17.1 87.5L20.2 93.8C20.5 94.3 21 94.6 21.5 94.6C22 94.6 22.6 94.3 22.8 93.8L25.9 87.5L32.2 84.4C32.7 84.1 33 83.6 33 83.1C33 82.6 32.7 82.1 32.2 81.8ZM24.2 85.1C23.9 85.2 23.7 85.5 23.5 85.8L21.6 89.8L19.7 85.8C19.6 85.5 19.3 85.3 19 85.1L15 83.2L19 81.3C19.3 81.2 19.5 80.9 19.7 80.6L21.6 76.6L23.5 80.6C23.6 80.9 23.9 81.1 24.2 81.3L28.2 83.2L24.2 85.1Z" fill="#E28234"/>
</svg>
